<mxfile host="app.diagrams.net" modified="2024-01-23T18:54:39.218Z" agent="Mozilla/5.0 (Windows NT 10.0; Win64; x64) AppleWebKit/537.36 (KHTML, like Gecko) Chrome/120.0.0.0 Safari/537.36" etag="4vqM_pJ_Qk3beh0nhsT_" version="22.1.22" type="github">
  <diagram name="Page-1" id="DtirlimgUcfxDNybS8bE">
    <mxGraphModel dx="2867" dy="1282" grid="1" gridSize="10" guides="1" tooltips="1" connect="1" arrows="1" fold="1" page="1" pageScale="1" pageWidth="827" pageHeight="1169" math="0" shadow="0">
      <root>
        <mxCell id="0" />
        <mxCell id="1" parent="0" />
        <mxCell id="eTyoZncDhA2huiXiJWmT-6" value="" style="rounded=0;whiteSpace=wrap;html=1;shadow=0;" vertex="1" parent="1">
          <mxGeometry x="179" y="30" width="470" height="1030" as="geometry" />
        </mxCell>
        <mxCell id="UalxauJKMx-4CK4qUqsu-1" value="&lt;font style=&quot;font-size: 18px;&quot;&gt;Check Calendar&lt;/font&gt;" style="ellipse;whiteSpace=wrap;html=1;" parent="1" vertex="1">
          <mxGeometry x="309" y="110" width="220" height="110" as="geometry" />
        </mxCell>
        <mxCell id="UalxauJKMx-4CK4qUqsu-2" value="&lt;font style=&quot;font-size: 18px;&quot;&gt;Add Appointment&lt;/font&gt;" style="ellipse;whiteSpace=wrap;html=1;" parent="1" vertex="1">
          <mxGeometry x="304" y="260" width="230" height="110" as="geometry" />
        </mxCell>
        <mxCell id="UalxauJKMx-4CK4qUqsu-3" value="&lt;font style=&quot;font-size: 18px;&quot;&gt;Mark Appointment&amp;nbsp;&lt;br&gt;Complete&amp;nbsp;&lt;/font&gt;" style="ellipse;whiteSpace=wrap;html=1;" parent="1" vertex="1">
          <mxGeometry x="304" y="560" width="220" height="110" as="geometry" />
        </mxCell>
        <mxCell id="UalxauJKMx-4CK4qUqsu-4" value="&lt;font style=&quot;font-size: 18px;&quot;&gt;Cancel Appointment&lt;/font&gt;" style="ellipse;whiteSpace=wrap;html=1;" parent="1" vertex="1">
          <mxGeometry x="299" y="420" width="230" height="110" as="geometry" />
        </mxCell>
        <mxCell id="UalxauJKMx-4CK4qUqsu-6" value="&lt;span style=&quot;font-size: 18px;&quot;&gt;Print Schedule Appointment&lt;/span&gt;" style="ellipse;whiteSpace=wrap;html=1;" parent="1" vertex="1">
          <mxGeometry x="320" y="720" width="220" height="110" as="geometry" />
        </mxCell>
        <mxCell id="UalxauJKMx-4CK4qUqsu-7" value="&lt;span style=&quot;font-size: 18px;&quot;&gt;Print Notifications&lt;/span&gt;" style="ellipse;whiteSpace=wrap;html=1;" parent="1" vertex="1">
          <mxGeometry x="320" y="880" width="220" height="110" as="geometry" />
        </mxCell>
        <mxCell id="UalxauJKMx-4CK4qUqsu-8" value="&lt;font style=&quot;font-size: 18px;&quot;&gt;Receptionist&lt;/font&gt;" style="shape=umlActor;verticalLabelPosition=bottom;verticalAlign=top;html=1;" parent="1" vertex="1">
          <mxGeometry y="350" width="110" height="190" as="geometry" />
        </mxCell>
        <mxCell id="UalxauJKMx-4CK4qUqsu-13" value="" style="endArrow=none;html=1;rounded=0;entryX=0;entryY=0.5;entryDx=0;entryDy=0;" parent="1" source="UalxauJKMx-4CK4qUqsu-8" target="UalxauJKMx-4CK4qUqsu-1" edge="1">
          <mxGeometry width="50" height="50" relative="1" as="geometry">
            <mxPoint x="140" y="220" as="sourcePoint" />
            <mxPoint x="190" y="170" as="targetPoint" />
          </mxGeometry>
        </mxCell>
        <mxCell id="UalxauJKMx-4CK4qUqsu-14" value="" style="endArrow=none;html=1;rounded=0;entryX=0;entryY=0.5;entryDx=0;entryDy=0;" parent="1" source="UalxauJKMx-4CK4qUqsu-8" target="UalxauJKMx-4CK4qUqsu-4" edge="1">
          <mxGeometry width="50" height="50" relative="1" as="geometry">
            <mxPoint x="176" y="500" as="sourcePoint" />
            <mxPoint x="320" y="290" as="targetPoint" />
          </mxGeometry>
        </mxCell>
        <mxCell id="UalxauJKMx-4CK4qUqsu-15" value="" style="endArrow=none;html=1;rounded=0;exitX=0;exitY=0.5;exitDx=0;exitDy=0;" parent="1" source="UalxauJKMx-4CK4qUqsu-7" target="UalxauJKMx-4CK4qUqsu-8" edge="1">
          <mxGeometry width="50" height="50" relative="1" as="geometry">
            <mxPoint x="110" y="880" as="sourcePoint" />
            <mxPoint x="254" y="670" as="targetPoint" />
          </mxGeometry>
        </mxCell>
        <mxCell id="UalxauJKMx-4CK4qUqsu-16" value="" style="endArrow=none;html=1;rounded=0;entryX=0;entryY=0.5;entryDx=0;entryDy=0;" parent="1" source="UalxauJKMx-4CK4qUqsu-8" target="UalxauJKMx-4CK4qUqsu-2" edge="1">
          <mxGeometry width="50" height="50" relative="1" as="geometry">
            <mxPoint x="440" y="500" as="sourcePoint" />
            <mxPoint x="584" y="290" as="targetPoint" />
          </mxGeometry>
        </mxCell>
        <mxCell id="UalxauJKMx-4CK4qUqsu-17" value="" style="endArrow=none;html=1;rounded=0;entryX=0;entryY=0.5;entryDx=0;entryDy=0;exitX=1;exitY=1;exitDx=0;exitDy=0;exitPerimeter=0;" parent="1" source="UalxauJKMx-4CK4qUqsu-8" target="UalxauJKMx-4CK4qUqsu-6" edge="1">
          <mxGeometry width="50" height="50" relative="1" as="geometry">
            <mxPoint x="100" y="730" as="sourcePoint" />
            <mxPoint x="244" y="520" as="targetPoint" />
          </mxGeometry>
        </mxCell>
        <mxCell id="UalxauJKMx-4CK4qUqsu-18" value="" style="endArrow=none;html=1;rounded=0;entryX=0;entryY=0.5;entryDx=0;entryDy=0;" parent="1" source="UalxauJKMx-4CK4qUqsu-8" target="UalxauJKMx-4CK4qUqsu-3" edge="1">
          <mxGeometry width="50" height="50" relative="1" as="geometry">
            <mxPoint x="190" y="610" as="sourcePoint" />
            <mxPoint x="334" y="400" as="targetPoint" />
          </mxGeometry>
        </mxCell>
        <mxCell id="UalxauJKMx-4CK4qUqsu-19" value="&lt;font style=&quot;font-size: 18px;&quot;&gt;Hygienist&lt;/font&gt;" style="shape=umlActor;verticalLabelPosition=bottom;verticalAlign=top;html=1;outlineConnect=0;" parent="1" vertex="1">
          <mxGeometry x="680" y="315" width="130" height="245" as="geometry" />
        </mxCell>
        <mxCell id="UalxauJKMx-4CK4qUqsu-23" value="" style="endArrow=none;html=1;rounded=0;exitX=1;exitY=0.5;exitDx=0;exitDy=0;" parent="1" source="UalxauJKMx-4CK4qUqsu-3" target="UalxauJKMx-4CK4qUqsu-19" edge="1">
          <mxGeometry width="50" height="50" relative="1" as="geometry">
            <mxPoint x="580" y="550" as="sourcePoint" />
            <mxPoint x="630" y="500" as="targetPoint" />
          </mxGeometry>
        </mxCell>
        <mxCell id="eTyoZncDhA2huiXiJWmT-7" value="&lt;font style=&quot;font-size: 18px;&quot;&gt;Dentist Appointment System&lt;/font&gt;" style="text;html=1;strokeColor=none;fillColor=none;align=center;verticalAlign=middle;whiteSpace=wrap;rounded=0;" vertex="1" parent="1">
          <mxGeometry x="280" y="1010" width="300" height="40" as="geometry" />
        </mxCell>
      </root>
    </mxGraphModel>
  </diagram>
</mxfile>
